<?xml version="1.0" encoding="utf-8"?>
<svg xmlns="http://www.w3.org/2000/svg" version="1.1" width="1000" height="800">

<line x1="100" y1="100" x2="200" y2="100" stroke="red" />
<line x1="185" y1="100" x2="180" y2="105" stroke="red" />
<line x1="185" y1="100" x2="180" y2="95" stroke="red" />
<text x="150" y="100" fill="green" >6</text>
<text x="157" y="100" fill="green" >;</text>
<text x="160" y="100" fill="green" >5</text>
<line x1="200" y1="100" x2="300" y2="100" stroke="red" />
<line x1="285" y1="100" x2="280" y2="105" stroke="red" />
<line x1="285" y1="100" x2="280" y2="95" stroke="red" />
<text x="250" y="100" fill="green" >9</text>
<text x="257" y="100" fill="green" >;</text>
<text x="260" y="100" fill="green" >8</text>
<line x1="300" y1="100" x2="400" y2="100" stroke="red" />
<line x1="385" y1="100" x2="380" y2="105" stroke="red" />
<line x1="385" y1="100" x2="380" y2="95" stroke="red" />
<text x="350" y="100" fill="green" >8</text>
<text x="357" y="100" fill="green" >;</text>
<text x="360" y="100" fill="green" >7</text>
<line x1="100" y1="200" x2="200" y2="200" stroke="red" />
<line x1="185" y1="200" x2="180" y2="205" stroke="red" />
<line x1="185" y1="200" x2="180" y2="195" stroke="red" />
<text x="150" y="200" fill="green" >5</text>
<text x="157" y="200" fill="green" >;</text>
<text x="160" y="200" fill="green" >6</text>
<line x1="200" y1="200" x2="300" y2="200" stroke="red" />
<line x1="285" y1="200" x2="280" y2="205" stroke="red" />
<line x1="285" y1="200" x2="280" y2="195" stroke="red" />
<text x="250" y="200" fill="green" >9</text>
<text x="257" y="200" fill="green" >;</text>
<text x="260" y="200" fill="green" >9</text>
<line x1="300" y1="200" x2="400" y2="200" stroke="red" />
<line x1="385" y1="200" x2="380" y2="205" stroke="red" />
<line x1="385" y1="200" x2="380" y2="195" stroke="red" />
<text x="350" y="200" fill="green" >2</text>
<text x="357" y="200" fill="green" >;</text>
<text x="360" y="200" fill="green" >6</text>
<line x1="100" y1="300" x2="200" y2="300" stroke="red" />
<line x1="185" y1="300" x2="180" y2="305" stroke="red" />
<line x1="185" y1="300" x2="180" y2="295" stroke="red" />
<text x="150" y="300" fill="green" >4</text>
<text x="157" y="300" fill="green" >;</text>
<text x="160" y="300" fill="green" >3</text>
<line x1="200" y1="300" x2="300" y2="300" stroke="red" />
<line x1="285" y1="300" x2="280" y2="305" stroke="red" />
<line x1="285" y1="300" x2="280" y2="295" stroke="red" />
<text x="250" y="300" fill="green" >1</text>
<text x="257" y="300" fill="green" >;</text>
<text x="260" y="300" fill="green" >1</text>
<line x1="300" y1="300" x2="400" y2="300" stroke="red" />
<line x1="385" y1="300" x2="380" y2="305" stroke="red" />
<line x1="385" y1="300" x2="380" y2="295" stroke="red" />
<text x="350" y="300" fill="green" >8</text>
<text x="357" y="300" fill="green" >;</text>
<text x="360" y="300" fill="green" >3</text>
<line x1="100" y1="400" x2="200" y2="400" stroke="red" />
<line x1="185" y1="400" x2="180" y2="405" stroke="red" />
<line x1="185" y1="400" x2="180" y2="395" stroke="red" />
<text x="150" y="400" fill="green" >3</text>
<text x="157" y="400" fill="green" >;</text>
<text x="160" y="400" fill="green" >1</text>
<line x1="200" y1="400" x2="300" y2="400" stroke="red" />
<line x1="285" y1="400" x2="280" y2="405" stroke="red" />
<line x1="285" y1="400" x2="280" y2="395" stroke="red" />
<text x="250" y="400" fill="green" >9</text>
<text x="257" y="400" fill="green" >;</text>
<text x="260" y="400" fill="green" >7</text>
<line x1="300" y1="400" x2="400" y2="400" stroke="red" />
<line x1="385" y1="400" x2="380" y2="405" stroke="red" />
<line x1="385" y1="400" x2="380" y2="395" stroke="red" />
<text x="350" y="400" fill="green" >3</text>
<text x="357" y="400" fill="green" >;</text>
<text x="360" y="400" fill="green" >5</text>
<line x1="100" y1="100" x2="100" y2="200" stroke="red" />
<line x1="100" y1="185" x2="95" y2="180" stroke="red" />
<line x1="100" y1="185" x2="105" y2="180" stroke="red" />
<text x="100" y="150" fill="green" >8</text>
<text x="107" y="150" fill="green" >;</text>
<text x="110" y="150" fill="green" >9</text>
<line x1="200" y1="100" x2="200" y2="200" stroke="red" />
<line x1="200" y1="185" x2="195" y2="180" stroke="red" />
<line x1="200" y1="185" x2="205" y2="180" stroke="red" />
<text x="200" y="150" fill="green" >7</text>
<text x="207" y="150" fill="green" >;</text>
<text x="210" y="150" fill="green" >2</text>
<line x1="300" y1="100" x2="300" y2="200" stroke="red" />
<line x1="300" y1="185" x2="295" y2="180" stroke="red" />
<line x1="300" y1="185" x2="305" y2="180" stroke="red" />
<text x="300" y="150" fill="green" >8</text>
<text x="307" y="150" fill="green" >;</text>
<text x="310" y="150" fill="green" >8</text>
<line x1="400" y1="100" x2="400" y2="200" stroke="red" />
<line x1="400" y1="185" x2="395" y2="180" stroke="red" />
<line x1="400" y1="185" x2="405" y2="180" stroke="red" />
<text x="400" y="150" fill="green" >6</text>
<text x="407" y="150" fill="green" >;</text>
<text x="410" y="150" fill="green" >4</text>
<line x1="100" y1="200" x2="100" y2="300" stroke="red" />
<line x1="100" y1="285" x2="95" y2="280" stroke="red" />
<line x1="100" y1="285" x2="105" y2="280" stroke="red" />
<text x="100" y="250" fill="green" >8</text>
<text x="107" y="250" fill="green" >;</text>
<text x="110" y="250" fill="green" >3</text>
<line x1="200" y1="200" x2="200" y2="300" stroke="red" />
<line x1="200" y1="285" x2="195" y2="280" stroke="red" />
<line x1="200" y1="285" x2="205" y2="280" stroke="red" />
<text x="200" y="250" fill="green" >9</text>
<text x="207" y="250" fill="green" >;</text>
<text x="210" y="250" fill="green" >7</text>
<line x1="300" y1="200" x2="300" y2="300" stroke="red" />
<line x1="300" y1="285" x2="295" y2="280" stroke="red" />
<line x1="300" y1="285" x2="305" y2="280" stroke="red" />
<text x="300" y="250" fill="green" >4</text>
<text x="307" y="250" fill="green" >;</text>
<text x="310" y="250" fill="green" >3</text>
<line x1="400" y1="200" x2="400" y2="300" stroke="red" />
<line x1="400" y1="285" x2="395" y2="280" stroke="red" />
<line x1="400" y1="285" x2="405" y2="280" stroke="red" />
<text x="400" y="250" fill="green" >1</text>
<text x="407" y="250" fill="green" >;</text>
<text x="410" y="250" fill="green" >4</text>
<line x1="100" y1="300" x2="100" y2="400" stroke="red" />
<line x1="100" y1="385" x2="95" y2="380" stroke="red" />
<line x1="100" y1="385" x2="105" y2="380" stroke="red" />
<text x="100" y="350" fill="green" >1</text>
<text x="107" y="350" fill="green" >;</text>
<text x="110" y="350" fill="green" >7</text>
<line x1="200" y1="300" x2="200" y2="400" stroke="red" />
<line x1="200" y1="385" x2="195" y2="380" stroke="red" />
<line x1="200" y1="385" x2="205" y2="380" stroke="red" />
<text x="200" y="350" fill="green" >7</text>
<text x="207" y="350" fill="green" >;</text>
<text x="210" y="350" fill="green" >3</text>
<line x1="300" y1="300" x2="300" y2="400" stroke="red" />
<line x1="300" y1="385" x2="295" y2="380" stroke="red" />
<line x1="300" y1="385" x2="305" y2="380" stroke="red" />
<text x="300" y="350" fill="green" >6</text>
<text x="307" y="350" fill="green" >;</text>
<text x="310" y="350" fill="green" >4</text>
<line x1="400" y1="300" x2="400" y2="400" stroke="red" />
<line x1="400" y1="385" x2="395" y2="380" stroke="red" />
<line x1="400" y1="385" x2="405" y2="380" stroke="red" />
<text x="400" y="350" fill="green" >1</text>
<text x="407" y="350" fill="green" >;</text>
<text x="410" y="350" fill="green" >8</text>
<circle cx="100" cy="100" r="15" fill="white" />
<circle cx="100" cy="100" r="15" fill="none" stroke="black" stroke-width="2" />
<text x="97.5" y="102.5" fill="purple" >0</text>
<circle cx="200" cy="100" r="15" fill="white" />
<circle cx="200" cy="100" r="15" fill="none" stroke="black" stroke-width="2" />
<text x="197.5" y="102.5" fill="purple" >1</text>
<circle cx="300" cy="100" r="15" fill="white" />
<circle cx="300" cy="100" r="15" fill="none" stroke="black" stroke-width="2" />
<text x="297.5" y="102.5" fill="purple" >2</text>
<circle cx="400" cy="100" r="15" fill="white" />
<circle cx="400" cy="100" r="15" fill="none" stroke="black" stroke-width="2" />
<text x="397.5" y="102.5" fill="purple" >3</text>
<circle cx="100" cy="200" r="15" fill="white" />
<circle cx="100" cy="200" r="15" fill="none" stroke="black" stroke-width="2" />
<text x="97.5" y="202.5" fill="purple" >4</text>
<circle cx="200" cy="200" r="15" fill="white" />
<circle cx="200" cy="200" r="15" fill="none" stroke="black" stroke-width="2" />
<text x="197.5" y="202.5" fill="purple" >5</text>
<circle cx="300" cy="200" r="15" fill="white" />
<circle cx="300" cy="200" r="15" fill="none" stroke="black" stroke-width="2" />
<text x="297.5" y="202.5" fill="purple" >6</text>
<circle cx="400" cy="200" r="15" fill="white" />
<circle cx="400" cy="200" r="15" fill="none" stroke="black" stroke-width="2" />
<text x="397.5" y="202.5" fill="purple" >7</text>
<circle cx="100" cy="300" r="15" fill="white" />
<circle cx="100" cy="300" r="15" fill="none" stroke="black" stroke-width="2" />
<text x="97.5" y="302.5" fill="purple" >8</text>
<circle cx="200" cy="300" r="15" fill="white" />
<circle cx="200" cy="300" r="15" fill="none" stroke="black" stroke-width="2" />
<text x="197.5" y="302.5" fill="purple" >9</text>
<circle cx="300" cy="300" r="15" fill="white" />
<circle cx="300" cy="300" r="15" fill="none" stroke="black" stroke-width="2" />
<text x="297.5" y="302.5" fill="purple" >10</text>
<circle cx="400" cy="300" r="15" fill="white" />
<circle cx="400" cy="300" r="15" fill="none" stroke="black" stroke-width="2" />
<text x="397.5" y="302.5" fill="purple" >11</text>
<circle cx="100" cy="400" r="15" fill="white" />
<circle cx="100" cy="400" r="15" fill="none" stroke="black" stroke-width="2" />
<text x="97.5" y="402.5" fill="purple" >12</text>
<circle cx="200" cy="400" r="15" fill="white" />
<circle cx="200" cy="400" r="15" fill="none" stroke="black" stroke-width="2" />
<text x="197.5" y="402.5" fill="purple" >13</text>
<circle cx="300" cy="400" r="15" fill="white" />
<circle cx="300" cy="400" r="15" fill="none" stroke="black" stroke-width="2" />
<text x="297.5" y="402.5" fill="purple" >14</text>
<circle cx="400" cy="400" r="15" fill="white" />
<circle cx="400" cy="400" r="15" fill="none" stroke="black" stroke-width="2" />
<text x="397.5" y="402.5" fill="purple" >15</text>
<line x1="600" y1="50" x2="600" y2="250" stroke="black" />
<line x1="600" y1="250" x2="800" y2="250" stroke="black" />
<line x1="600" y1="50" x2="595" y2="55" stroke="black" />
<line x1="600" y1="50" x2="605" y2="55" stroke="black" />
<line x1="800" y1="250" x2="795" y2="245" stroke="black" />
<line x1="800" y1="250" x2="795" y2="255" stroke="black" />
<circle cx="677" cy="196" r="3" fill="green" />
<text x="560" y="40" fill="black" >cout 1</text>
<text x="810" y="250" fill="black" >cout 2</text>


</svg>
