<?xml version="1.0" encoding="utf-8"?>
<svg xmlns="http://www.w3.org/2000/svg" version="1.1" width="1000" height="800">

<line x1="100" y1="100" x2="400" y2="100" stroke="red" />
<line x1="385" y1="100" x2="380" y2="105" stroke="red" />
<line x1="385" y1="100" x2="380" y2="95" stroke="red" />
<text x="250" y="100" fill="green" >5</text>
<text x="257" y="100" fill="green" >;</text>
<text x="260" y="100" fill="green" >5</text>
<line x1="100" y1="100" x2="100" y2="400" stroke="red" />
<line x1="100" y1="385" x2="95" y2="380" stroke="red" />
<line x1="100" y1="385" x2="105" y2="380" stroke="red" />
<text x="100" y="250" fill="green" >2</text>
<text x="107" y="250" fill="green" >;</text>
<text x="110" y="250" fill="green" >3</text>
<line x1="100" y1="100" x2="200" y2="200" stroke="red" />
<line x1="185" y1="185" x2="182.5" y2="177.5" stroke="red" />
<line x1="185" y1="185" x2="177.5" y2="182.5" stroke="red" />
<text x="150" y="150" fill="green" >9</text>
<text x="157" y="150" fill="green" >;</text>
<text x="160" y="150" fill="green" >4</text>
<line x1="200" y1="200" x2="300" y2="200" stroke="red" />
<line x1="285" y1="200" x2="280" y2="205" stroke="red" />
<line x1="285" y1="200" x2="280" y2="195" stroke="red" />
<text x="250" y="200" fill="green" >6</text>
<text x="257" y="200" fill="green" >;</text>
<text x="260" y="200" fill="green" >4</text>
<line x1="400" y1="100" x2="300" y2="200" stroke="red" />
<line x1="310" y1="190" x2="312.5" y2="182.5" stroke="red" />
<line x1="310" y1="190" x2="317.5" y2="187.5" stroke="red" />
<text x="350" y="150" fill="green" >7</text>
<text x="357" y="150" fill="green" >;</text>
<text x="360" y="150" fill="green" >2</text>
<line x1="400" y1="100" x2="400" y2="400" stroke="red" />
<line x1="400" y1="385" x2="395" y2="380" stroke="red" />
<line x1="400" y1="385" x2="405" y2="380" stroke="red" />
<text x="400" y="250" fill="green" >6</text>
<text x="407" y="250" fill="green" >;</text>
<text x="410" y="250" fill="green" >3</text>
<line x1="200" y1="200" x2="200" y2="300" stroke="red" />
<line x1="200" y1="285" x2="195" y2="280" stroke="red" />
<line x1="200" y1="285" x2="205" y2="280" stroke="red" />
<text x="200" y="250" fill="green" >9</text>
<text x="207" y="250" fill="green" >;</text>
<text x="210" y="250" fill="green" >7</text>
<line x1="300" y1="200" x2="300" y2="300" stroke="red" />
<line x1="300" y1="285" x2="295" y2="280" stroke="red" />
<line x1="300" y1="285" x2="305" y2="280" stroke="red" />
<text x="300" y="250" fill="green" >1</text>
<text x="307" y="250" fill="green" >;</text>
<text x="310" y="250" fill="green" >2</text>
<line x1="200" y1="300" x2="100" y2="400" stroke="red" />
<line x1="110" y1="390" x2="112.5" y2="382.5" stroke="red" />
<line x1="110" y1="390" x2="117.5" y2="387.5" stroke="red" />
<text x="150" y="350" fill="green" >2</text>
<text x="157" y="350" fill="green" >;</text>
<text x="160" y="350" fill="green" >7</text>
<line x1="200" y1="300" x2="300" y2="300" stroke="red" />
<line x1="285" y1="300" x2="280" y2="305" stroke="red" />
<line x1="285" y1="300" x2="280" y2="295" stroke="red" />
<text x="250" y="300" fill="green" >5</text>
<text x="257" y="300" fill="green" >;</text>
<text x="260" y="300" fill="green" >9</text>
<line x1="300" y1="300" x2="400" y2="400" stroke="red" />
<line x1="385" y1="385" x2="382.5" y2="377.5" stroke="red" />
<line x1="385" y1="385" x2="377.5" y2="382.5" stroke="red" />
<text x="350" y="350" fill="green" >3</text>
<text x="357" y="350" fill="green" >;</text>
<text x="360" y="350" fill="green" >4</text>
<line x1="100" y1="400" x2="400" y2="400" stroke="red" />
<line x1="385" y1="400" x2="380" y2="405" stroke="red" />
<line x1="385" y1="400" x2="380" y2="395" stroke="red" />
<text x="250" y="400" fill="green" >4</text>
<text x="257" y="400" fill="green" >;</text>
<text x="260" y="400" fill="green" >4</text>
<line x1="400" y1="100" x2="100" y2="100" stroke="red" />
<line x1="115" y1="100" x2="120" y2="95" stroke="red" />
<line x1="115" y1="100" x2="120" y2="105" stroke="red" />
<text x="250" y="100" fill="green" >5</text>
<text x="257" y="100" fill="green" >;</text>
<text x="260" y="100" fill="green" >5</text>
<line x1="100" y1="400" x2="100" y2="100" stroke="red" />
<line x1="100" y1="115" x2="95" y2="120" stroke="red" />
<line x1="100" y1="115" x2="105" y2="120" stroke="red" />
<text x="100" y="250" fill="green" >2</text>
<text x="107" y="250" fill="green" >;</text>
<text x="110" y="250" fill="green" >3</text>
<line x1="200" y1="200" x2="100" y2="100" stroke="red" />
<line x1="110" y1="110" x2="112.5" y2="117.5" stroke="red" />
<line x1="110" y1="110" x2="117.5" y2="112.5" stroke="red" />
<text x="150" y="150" fill="green" >9</text>
<text x="157" y="150" fill="green" >;</text>
<text x="160" y="150" fill="green" >4</text>
<line x1="300" y1="200" x2="200" y2="200" stroke="red" />
<line x1="215" y1="200" x2="220" y2="195" stroke="red" />
<line x1="215" y1="200" x2="220" y2="205" stroke="red" />
<text x="250" y="200" fill="green" >6</text>
<text x="257" y="200" fill="green" >;</text>
<text x="260" y="200" fill="green" >4</text>
<line x1="300" y1="200" x2="400" y2="100" stroke="red" />
<line x1="390" y1="110" x2="382.5" y2="112.5" stroke="red" />
<line x1="390" y1="110" x2="387.5" y2="117.5" stroke="red" />
<text x="350" y="150" fill="green" >7</text>
<text x="357" y="150" fill="green" >;</text>
<text x="360" y="150" fill="green" >2</text>
<line x1="400" y1="400" x2="400" y2="100" stroke="red" />
<line x1="400" y1="115" x2="395" y2="120" stroke="red" />
<line x1="400" y1="115" x2="405" y2="120" stroke="red" />
<text x="400" y="250" fill="green" >6</text>
<text x="407" y="250" fill="green" >;</text>
<text x="410" y="250" fill="green" >3</text>
<line x1="200" y1="300" x2="200" y2="200" stroke="red" />
<line x1="200" y1="215" x2="195" y2="220" stroke="red" />
<line x1="200" y1="215" x2="205" y2="220" stroke="red" />
<text x="200" y="250" fill="green" >9</text>
<text x="207" y="250" fill="green" >;</text>
<text x="210" y="250" fill="green" >7</text>
<line x1="300" y1="300" x2="300" y2="200" stroke="red" />
<line x1="300" y1="215" x2="295" y2="220" stroke="red" />
<line x1="300" y1="215" x2="305" y2="220" stroke="red" />
<text x="300" y="250" fill="green" >1</text>
<text x="307" y="250" fill="green" >;</text>
<text x="310" y="250" fill="green" >2</text>
<line x1="100" y1="400" x2="200" y2="300" stroke="red" />
<line x1="190" y1="310" x2="182.5" y2="312.5" stroke="red" />
<line x1="190" y1="310" x2="187.5" y2="317.5" stroke="red" />
<text x="150" y="350" fill="green" >2</text>
<text x="157" y="350" fill="green" >;</text>
<text x="160" y="350" fill="green" >7</text>
<line x1="300" y1="300" x2="200" y2="300" stroke="red" />
<line x1="215" y1="300" x2="220" y2="295" stroke="red" />
<line x1="215" y1="300" x2="220" y2="305" stroke="red" />
<text x="250" y="300" fill="green" >5</text>
<text x="257" y="300" fill="green" >;</text>
<text x="260" y="300" fill="green" >9</text>
<line x1="400" y1="400" x2="300" y2="300" stroke="red" />
<line x1="310" y1="310" x2="312.5" y2="317.5" stroke="red" />
<line x1="310" y1="310" x2="317.5" y2="312.5" stroke="red" />
<text x="350" y="350" fill="green" >3</text>
<text x="357" y="350" fill="green" >;</text>
<text x="360" y="350" fill="green" >4</text>
<line x1="400" y1="400" x2="100" y2="400" stroke="red" />
<line x1="115" y1="400" x2="120" y2="395" stroke="red" />
<line x1="115" y1="400" x2="120" y2="405" stroke="red" />
<text x="250" y="400" fill="green" >4</text>
<text x="257" y="400" fill="green" >;</text>
<text x="260" y="400" fill="green" >4</text>
<circle cx="100" cy="100" r="15" fill="white" />
<circle cx="100" cy="100" r="15" fill="none" stroke="black" stroke-width="2" />
<text x="97.5" y="102.5" fill="purple" >0</text>
<circle cx="400" cy="100" r="15" fill="white" />
<circle cx="400" cy="100" r="15" fill="none" stroke="black" stroke-width="2" />
<text x="397.5" y="102.5" fill="purple" >1</text>
<circle cx="200" cy="200" r="15" fill="white" />
<circle cx="200" cy="200" r="15" fill="none" stroke="black" stroke-width="2" />
<text x="197.5" y="202.5" fill="purple" >2</text>
<circle cx="300" cy="200" r="15" fill="white" />
<circle cx="300" cy="200" r="15" fill="none" stroke="black" stroke-width="2" />
<text x="297.5" y="202.5" fill="purple" >3</text>
<circle cx="200" cy="300" r="15" fill="white" />
<circle cx="200" cy="300" r="15" fill="none" stroke="black" stroke-width="2" />
<text x="197.5" y="302.5" fill="purple" >4</text>
<circle cx="300" cy="300" r="15" fill="white" />
<circle cx="300" cy="300" r="15" fill="none" stroke="black" stroke-width="2" />
<text x="297.5" y="302.5" fill="purple" >5</text>
<circle cx="100" cy="400" r="15" fill="white" />
<circle cx="100" cy="400" r="15" fill="none" stroke="black" stroke-width="2" />
<text x="97.5" y="402.5" fill="purple" >6</text>
<circle cx="400" cy="400" r="15" fill="white" />
<circle cx="400" cy="400" r="15" fill="none" stroke="black" stroke-width="2" />
<text x="397.5" y="402.5" fill="purple" >7</text>


</svg>
