<?xml version="1.0" encoding="utf-8"?>
<svg xmlns="http://www.w3.org/2000/svg" version="1.1" width="1000" height="800">

<line x1="600" y1="50" x2="600" y2="250" stroke="black" />
<line x1="600" y1="250" x2="800" y2="250" stroke="black" />
<line x1="600" y1="50" x2="595" y2="55" stroke="black" />
<line x1="600" y1="50" x2="605" y2="55" stroke="black" />
<line x1="800" y1="250" x2="795" y2="245" stroke="black" />
<line x1="800" y1="250" x2="795" y2="255" stroke="black" />
<text x="560" y="40" fill="black" >cout 1</text>
<text x="810" y="250" fill="black" >cout 2</text>
<circle cx="627" cy="174" r="0.4" fill="green" />
<circle cx="613" cy="148" r="0.4" fill="green" />
<circle cx="619" cy="160" r="0.4" fill="green" />
<circle cx="611" cy="130" r="0.4" fill="green" />
<circle cx="621" cy="172" r="0.4" fill="green" />
<circle cx="618" cy="156" r="0.4" fill="green" />
<circle cx="619" cy="152" r="0.4" fill="red" />
<circle cx="619" cy="142" r="0.4" fill="red" />
<circle cx="624" cy="166" r="0.4" fill="red" />
<circle cx="616" cy="126" r="0.4" fill="red" />
<circle cx="622" cy="134" r="0.4" fill="red" />
<circle cx="617" cy="118" r="0.4" fill="red" />
<circle cx="625" cy="162" r="0.4" fill="red" />
<circle cx="616" cy="124" r="0.4" fill="red" />


</svg>
