<?xml version="1.0" encoding="utf-8"?>
<svg xmlns="http://www.w3.org/2000/svg" version="1.1" width="1000" height="800">

<line x1="225" y1="85" x2="175" y2="170" stroke="red" />
<line x1="185" y1="160" x2="187.5" y2="152.5" stroke="red" />
<line x1="185" y1="160" x2="192.5" y2="157.5" stroke="red" />
<text x="200" y="127.5" fill="green" >6</text>
<text x="207" y="127.5" fill="green" >;</text>
<text x="210" y="127.5" fill="green" >4</text>
<line x1="225" y1="85" x2="275" y2="170" stroke="red" />
<line x1="260" y1="155" x2="257.5" y2="147.5" stroke="red" />
<line x1="260" y1="155" x2="252.5" y2="152.5" stroke="red" />
<text x="250" y="127.5" fill="green" >9</text>
<text x="257" y="127.5" fill="green" >;</text>
<text x="260" y="127.5" fill="green" >1</text>
<line x1="175" y1="170" x2="275" y2="170" stroke="red" />
<line x1="260" y1="170" x2="255" y2="175" stroke="red" />
<line x1="260" y1="170" x2="255" y2="165" stroke="red" />
<text x="225" y="170" fill="green" >8</text>
<text x="232" y="170" fill="green" >;</text>
<text x="235" y="170" fill="green" >1</text>
<line x1="175" y1="170" x2="125" y2="255" stroke="red" />
<line x1="135" y1="245" x2="137.5" y2="237.5" stroke="red" />
<line x1="135" y1="245" x2="142.5" y2="242.5" stroke="red" />
<text x="150" y="212.5" fill="green" >5</text>
<text x="157" y="212.5" fill="green" >;</text>
<text x="160" y="212.5" fill="green" >7</text>
<line x1="175" y1="170" x2="225" y2="255" stroke="red" />
<line x1="210" y1="240" x2="207.5" y2="232.5" stroke="red" />
<line x1="210" y1="240" x2="202.5" y2="237.5" stroke="red" />
<text x="200" y="212.5" fill="green" >9</text>
<text x="207" y="212.5" fill="green" >;</text>
<text x="210" y="212.5" fill="green" >6</text>
<line x1="275" y1="170" x2="225" y2="255" stroke="red" />
<line x1="235" y1="245" x2="237.5" y2="237.5" stroke="red" />
<line x1="235" y1="245" x2="242.5" y2="242.5" stroke="red" />
<text x="250" y="212.5" fill="green" >2</text>
<text x="257" y="212.5" fill="green" >;</text>
<text x="260" y="212.5" fill="green" >1</text>
<line x1="275" y1="170" x2="325" y2="255" stroke="red" />
<line x1="310" y1="240" x2="307.5" y2="232.5" stroke="red" />
<line x1="310" y1="240" x2="302.5" y2="237.5" stroke="red" />
<text x="300" y="212.5" fill="green" >4</text>
<text x="307" y="212.5" fill="green" >;</text>
<text x="310" y="212.5" fill="green" >5</text>
<line x1="125" y1="255" x2="225" y2="255" stroke="red" />
<line x1="210" y1="255" x2="205" y2="260" stroke="red" />
<line x1="210" y1="255" x2="205" y2="250" stroke="red" />
<text x="175" y="255" fill="green" >1</text>
<text x="182" y="255" fill="green" >;</text>
<text x="185" y="255" fill="green" >8</text>
<line x1="225" y1="255" x2="325" y2="255" stroke="red" />
<line x1="310" y1="255" x2="305" y2="260" stroke="red" />
<line x1="310" y1="255" x2="305" y2="250" stroke="red" />
<text x="275" y="255" fill="green" >8</text>
<text x="282" y="255" fill="green" >;</text>
<text x="285" y="255" fill="green" >7</text>
<line x1="125" y1="255" x2="75" y2="340" stroke="red" />
<line x1="85" y1="330" x2="87.5" y2="322.5" stroke="red" />
<line x1="85" y1="330" x2="92.5" y2="327.5" stroke="red" />
<text x="100" y="297.5" fill="green" >3</text>
<text x="107" y="297.5" fill="green" >;</text>
<text x="110" y="297.5" fill="green" >6</text>
<line x1="125" y1="255" x2="175" y2="340" stroke="red" />
<line x1="160" y1="325" x2="157.5" y2="317.5" stroke="red" />
<line x1="160" y1="325" x2="152.5" y2="322.5" stroke="red" />
<text x="150" y="297.5" fill="green" >9</text>
<text x="157" y="297.5" fill="green" >;</text>
<text x="160" y="297.5" fill="green" >9</text>
<line x1="225" y1="255" x2="175" y2="340" stroke="red" />
<line x1="185" y1="330" x2="187.5" y2="322.5" stroke="red" />
<line x1="185" y1="330" x2="192.5" y2="327.5" stroke="red" />
<text x="200" y="297.5" fill="green" >3</text>
<text x="207" y="297.5" fill="green" >;</text>
<text x="210" y="297.5" fill="green" >6</text>
<line x1="225" y1="255" x2="275" y2="340" stroke="red" />
<line x1="260" y1="325" x2="257.5" y2="317.5" stroke="red" />
<line x1="260" y1="325" x2="252.5" y2="322.5" stroke="red" />
<text x="250" y="297.5" fill="green" >8</text>
<text x="257" y="297.5" fill="green" >;</text>
<text x="260" y="297.5" fill="green" >3</text>
<line x1="325" y1="255" x2="275" y2="340" stroke="red" />
<line x1="285" y1="330" x2="287.5" y2="322.5" stroke="red" />
<line x1="285" y1="330" x2="292.5" y2="327.5" stroke="red" />
<text x="300" y="297.5" fill="green" >7</text>
<text x="307" y="297.5" fill="green" >;</text>
<text x="310" y="297.5" fill="green" >1</text>
<line x1="325" y1="255" x2="375" y2="340" stroke="red" />
<line x1="360" y1="325" x2="357.5" y2="317.5" stroke="red" />
<line x1="360" y1="325" x2="352.5" y2="322.5" stroke="red" />
<text x="350" y="297.5" fill="green" >8</text>
<text x="357" y="297.5" fill="green" >;</text>
<text x="360" y="297.5" fill="green" >3</text>
<line x1="75" y1="340" x2="175" y2="340" stroke="red" />
<line x1="160" y1="340" x2="155" y2="345" stroke="red" />
<line x1="160" y1="340" x2="155" y2="335" stroke="red" />
<text x="125" y="340" fill="green" >6</text>
<text x="132" y="340" fill="green" >;</text>
<text x="135" y="340" fill="green" >1</text>
<line x1="175" y1="340" x2="275" y2="340" stroke="red" />
<line x1="260" y1="340" x2="255" y2="345" stroke="red" />
<line x1="260" y1="340" x2="255" y2="335" stroke="red" />
<text x="225" y="340" fill="green" >8</text>
<text x="232" y="340" fill="green" >;</text>
<text x="235" y="340" fill="green" >7</text>
<line x1="275" y1="340" x2="375" y2="340" stroke="red" />
<line x1="360" y1="340" x2="355" y2="345" stroke="red" />
<line x1="360" y1="340" x2="355" y2="335" stroke="red" />
<text x="325" y="340" fill="green" >9</text>
<text x="332" y="340" fill="green" >;</text>
<text x="335" y="340" fill="green" >5</text>
<line x1="175" y1="170" x2="225" y2="85" stroke="red" />
<line x1="215" y1="95" x2="207.5" y2="97.5" stroke="red" />
<line x1="215" y1="95" x2="212.5" y2="102.5" stroke="red" />
<text x="200" y="127.5" fill="green" >6</text>
<text x="207" y="127.5" fill="green" >;</text>
<text x="210" y="127.5" fill="green" >4</text>
<line x1="275" y1="170" x2="225" y2="85" stroke="red" />
<line x1="235" y1="95" x2="237.5" y2="102.5" stroke="red" />
<line x1="235" y1="95" x2="242.5" y2="97.5" stroke="red" />
<text x="250" y="127.5" fill="green" >9</text>
<text x="257" y="127.5" fill="green" >;</text>
<text x="260" y="127.5" fill="green" >1</text>
<line x1="275" y1="170" x2="175" y2="170" stroke="red" />
<line x1="190" y1="170" x2="195" y2="165" stroke="red" />
<line x1="190" y1="170" x2="195" y2="175" stroke="red" />
<text x="225" y="170" fill="green" >8</text>
<text x="232" y="170" fill="green" >;</text>
<text x="235" y="170" fill="green" >1</text>
<line x1="125" y1="255" x2="175" y2="170" stroke="red" />
<line x1="165" y1="180" x2="157.5" y2="182.5" stroke="red" />
<line x1="165" y1="180" x2="162.5" y2="187.5" stroke="red" />
<text x="150" y="212.5" fill="green" >5</text>
<text x="157" y="212.5" fill="green" >;</text>
<text x="160" y="212.5" fill="green" >7</text>
<line x1="225" y1="255" x2="175" y2="170" stroke="red" />
<line x1="185" y1="180" x2="187.5" y2="187.5" stroke="red" />
<line x1="185" y1="180" x2="192.5" y2="182.5" stroke="red" />
<text x="200" y="212.5" fill="green" >9</text>
<text x="207" y="212.5" fill="green" >;</text>
<text x="210" y="212.5" fill="green" >6</text>
<line x1="225" y1="255" x2="275" y2="170" stroke="red" />
<line x1="265" y1="180" x2="257.5" y2="182.5" stroke="red" />
<line x1="265" y1="180" x2="262.5" y2="187.5" stroke="red" />
<text x="250" y="212.5" fill="green" >2</text>
<text x="257" y="212.5" fill="green" >;</text>
<text x="260" y="212.5" fill="green" >1</text>
<line x1="325" y1="255" x2="275" y2="170" stroke="red" />
<line x1="285" y1="180" x2="287.5" y2="187.5" stroke="red" />
<line x1="285" y1="180" x2="292.5" y2="182.5" stroke="red" />
<text x="300" y="212.5" fill="green" >4</text>
<text x="307" y="212.5" fill="green" >;</text>
<text x="310" y="212.5" fill="green" >5</text>
<line x1="225" y1="255" x2="125" y2="255" stroke="red" />
<line x1="140" y1="255" x2="145" y2="250" stroke="red" />
<line x1="140" y1="255" x2="145" y2="260" stroke="red" />
<text x="175" y="255" fill="green" >1</text>
<text x="182" y="255" fill="green" >;</text>
<text x="185" y="255" fill="green" >8</text>
<line x1="325" y1="255" x2="225" y2="255" stroke="red" />
<line x1="240" y1="255" x2="245" y2="250" stroke="red" />
<line x1="240" y1="255" x2="245" y2="260" stroke="red" />
<text x="275" y="255" fill="green" >8</text>
<text x="282" y="255" fill="green" >;</text>
<text x="285" y="255" fill="green" >7</text>
<line x1="75" y1="340" x2="125" y2="255" stroke="red" />
<line x1="115" y1="265" x2="107.5" y2="267.5" stroke="red" />
<line x1="115" y1="265" x2="112.5" y2="272.5" stroke="red" />
<text x="100" y="297.5" fill="green" >3</text>
<text x="107" y="297.5" fill="green" >;</text>
<text x="110" y="297.5" fill="green" >6</text>
<line x1="175" y1="340" x2="125" y2="255" stroke="red" />
<line x1="135" y1="265" x2="137.5" y2="272.5" stroke="red" />
<line x1="135" y1="265" x2="142.5" y2="267.5" stroke="red" />
<text x="150" y="297.5" fill="green" >9</text>
<text x="157" y="297.5" fill="green" >;</text>
<text x="160" y="297.5" fill="green" >9</text>
<line x1="175" y1="340" x2="225" y2="255" stroke="red" />
<line x1="215" y1="265" x2="207.5" y2="267.5" stroke="red" />
<line x1="215" y1="265" x2="212.5" y2="272.5" stroke="red" />
<text x="200" y="297.5" fill="green" >3</text>
<text x="207" y="297.5" fill="green" >;</text>
<text x="210" y="297.5" fill="green" >6</text>
<line x1="275" y1="340" x2="225" y2="255" stroke="red" />
<line x1="235" y1="265" x2="237.5" y2="272.5" stroke="red" />
<line x1="235" y1="265" x2="242.5" y2="267.5" stroke="red" />
<text x="250" y="297.5" fill="green" >8</text>
<text x="257" y="297.5" fill="green" >;</text>
<text x="260" y="297.5" fill="green" >3</text>
<line x1="275" y1="340" x2="325" y2="255" stroke="red" />
<line x1="315" y1="265" x2="307.5" y2="267.5" stroke="red" />
<line x1="315" y1="265" x2="312.5" y2="272.5" stroke="red" />
<text x="300" y="297.5" fill="green" >7</text>
<text x="307" y="297.5" fill="green" >;</text>
<text x="310" y="297.5" fill="green" >1</text>
<line x1="375" y1="340" x2="325" y2="255" stroke="red" />
<line x1="335" y1="265" x2="337.5" y2="272.5" stroke="red" />
<line x1="335" y1="265" x2="342.5" y2="267.5" stroke="red" />
<text x="350" y="297.5" fill="green" >8</text>
<text x="357" y="297.5" fill="green" >;</text>
<text x="360" y="297.5" fill="green" >3</text>
<line x1="175" y1="340" x2="75" y2="340" stroke="red" />
<line x1="90" y1="340" x2="95" y2="335" stroke="red" />
<line x1="90" y1="340" x2="95" y2="345" stroke="red" />
<text x="125" y="340" fill="green" >6</text>
<text x="132" y="340" fill="green" >;</text>
<text x="135" y="340" fill="green" >1</text>
<line x1="275" y1="340" x2="175" y2="340" stroke="red" />
<line x1="190" y1="340" x2="195" y2="335" stroke="red" />
<line x1="190" y1="340" x2="195" y2="345" stroke="red" />
<text x="225" y="340" fill="green" >8</text>
<text x="232" y="340" fill="green" >;</text>
<text x="235" y="340" fill="green" >7</text>
<line x1="375" y1="340" x2="275" y2="340" stroke="red" />
<line x1="290" y1="340" x2="295" y2="335" stroke="red" />
<line x1="290" y1="340" x2="295" y2="345" stroke="red" />
<text x="325" y="340" fill="green" >9</text>
<text x="332" y="340" fill="green" >;</text>
<text x="335" y="340" fill="green" >5</text>
<circle cx="225" cy="85" r="15" fill="white" />
<circle cx="225" cy="85" r="15" fill="none" stroke="black" stroke-width="2" />
<text x="222.5" y="87.5" fill="purple" >0</text>
<circle cx="175" cy="170" r="15" fill="white" />
<circle cx="175" cy="170" r="15" fill="none" stroke="black" stroke-width="2" />
<text x="172.5" y="172.5" fill="purple" >1</text>
<circle cx="275" cy="170" r="15" fill="white" />
<circle cx="275" cy="170" r="15" fill="none" stroke="black" stroke-width="2" />
<text x="272.5" y="172.5" fill="purple" >2</text>
<circle cx="125" cy="255" r="15" fill="white" />
<circle cx="125" cy="255" r="15" fill="none" stroke="black" stroke-width="2" />
<text x="122.5" y="257.5" fill="purple" >3</text>
<circle cx="225" cy="255" r="15" fill="white" />
<circle cx="225" cy="255" r="15" fill="none" stroke="black" stroke-width="2" />
<text x="222.5" y="257.5" fill="purple" >4</text>
<circle cx="325" cy="255" r="15" fill="white" />
<circle cx="325" cy="255" r="15" fill="none" stroke="black" stroke-width="2" />
<text x="322.5" y="257.5" fill="purple" >5</text>
<circle cx="75" cy="340" r="15" fill="white" />
<circle cx="75" cy="340" r="15" fill="none" stroke="black" stroke-width="2" />
<text x="72.5" y="342.5" fill="purple" >6</text>
<circle cx="175" cy="340" r="15" fill="white" />
<circle cx="175" cy="340" r="15" fill="none" stroke="black" stroke-width="2" />
<text x="172.5" y="342.5" fill="purple" >7</text>
<circle cx="275" cy="340" r="15" fill="white" />
<circle cx="275" cy="340" r="15" fill="none" stroke="black" stroke-width="2" />
<text x="272.5" y="342.5" fill="purple" >8</text>
<circle cx="375" cy="340" r="15" fill="white" />
<circle cx="375" cy="340" r="15" fill="none" stroke="black" stroke-width="2" />
<text x="372.5" y="342.5" fill="purple" >9</text>


</svg>
